<?xml version="1.0" encoding="utf-8"?><!DOCTYPE svg PUBLIC "-//W3C//DTD SVG 1.1//EN" "http://www.w3.org/Graphics/SVG/1.1/DTD/svg11.dtd"><svg width="1558" height="1558" viewBox="0 0 1558 1558" xmlns="http://www.w3.org/2000/svg" xmlns:xlink="http://www.w3.org/1999/xlink"><view id="ios-call" viewBox="533.333 0 512 512"/><svg viewBox="0 0 512 512" width="512" height="512" x="533.333" xmlns="http://www.w3.org/2000/svg"><path d="M436.9 364.8c-14.7-14.7-50-36.8-67.4-45.1-20.2-9.7-27.6-9.5-41.9.8-11.9 8.6-19.6 16.6-33.3 13.6-13.7-2.9-40.7-23.4-66.9-49.5-26.2-26.2-46.6-53.2-49.5-66.9-2.9-13.8 5.1-21.4 13.6-33.3 10.3-14.3 10.6-21.7.8-41.9C184 125 162 89.8 147.2 75.1c-14.7-14.7-18-11.5-26.1-8.6 0 0-12 4.8-23.9 12.7-14.7 9.8-22.9 18-28.7 30.3-5.7 12.3-12.3 35.2 21.3 95 27.1 48.3 53.7 84.9 93.2 124.3l.1.1.1.1c39.5 39.5 76 66.1 124.3 93.2 59.8 33.6 82.7 27 95 21.3 12.3-5.7 20.5-13.9 30.3-28.7 7.9-11.9 12.7-23.9 12.7-23.9 2.9-8.1 6.2-11.4-8.6-26.1z" fill="#666"/></svg><view id="ios-cart" viewBox="0 533.333 512 512"/><svg viewBox="0 0 512 512" width="512" height="512" y="533.333" xmlns="http://www.w3.org/2000/svg"><circle transform="rotate(-1.057 159.995 423.97) scale(.99997)" cx="160" cy="424" fill="#222" r="24"/><circle transform="matrix(.02382 -.9997 .9997 .02382 -48.51 798.282)" cx="384.5" cy="424" fill="#222" r="24"/><path d="M463.8 132.2c-.7-2.4-2.8-4-5.2-4.2L132.9 96.5c-2.8-.3-6.2-2.1-7.5-4.7-3.8-7.1-6.2-11.1-12.2-18.6-7.7-9.4-22.2-9.1-48.8-9.3-9-.1-16.3 5.2-16.3 14.1 0 8.7 6.9 14.1 15.6 14.1s21.3.5 26 1.9c4.7 1.4 8.5 9.1 9.9 15.8 0 .1 0 .2.1.3.2 1.2 2 10.2 2 10.3l40 211.6c2.4 14.5 7.3 26.5 14.5 35.7 8.4 10.8 19.5 16.2 32.9 16.2h236.6c7.6 0 14.1-5.8 14.4-13.4.4-8-6-14.6-14-14.6H188.9c-2 0-4.9 0-8.3-2.8-3.5-3-8.3-9.9-11.5-26l-4.3-23.7c0-.3.1-.5.4-.6l277.7-47c2.6-.4 4.6-2.5 4.9-5.2l16-115.8c.2-.8.2-1.7 0-2.6z" fill="#fff"/></svg><view id="ios-close" viewBox="512 533.333 512 512"/><svg viewBox="0 0 512 512" width="512" height="512" x="512" y="533.333" xmlns="http://www.w3.org/2000/svg"><path d="M278.6 256l68.2-68.2c6.2-6.2 6.2-16.4 0-22.6-6.2-6.2-16.4-6.2-22.6 0L256 233.4l-68.2-68.2c-6.2-6.2-16.4-6.2-22.6 0-3.1 3.1-4.7 7.2-4.7 11.3 0 4.1 1.6 8.2 4.7 11.3l68.2 68.2-68.2 68.2c-3.1 3.1-4.7 7.2-4.7 11.3 0 4.1 1.6 8.2 4.7 11.3 6.2 6.2 16.4 6.2 22.6 0l68.2-68.2 68.2 68.2c6.2 6.2 16.4 6.2 22.6 0 6.2-6.2 6.2-16.4 0-22.6L278.6 256z" fill="#222"/></svg><view id="ios-mail" viewBox="1045.333 0 512 512"/><svg viewBox="0 0 512 512" width="512" height="512" x="1045.333" xmlns="http://www.w3.org/2000/svg"><g fill="#666"><path d="M460.6 147.3L353 256.9c-.8.8-.8 2 0 2.8l75.3 80.2c5.1 5.1 5.1 13.3 0 18.4-2.5 2.5-5.9 3.8-9.2 3.8s-6.7-1.3-9.2-3.8l-75-79.9c-.8-.8-2.1-.8-2.9 0L313.7 297c-15.3 15.5-35.6 24.1-57.4 24.2-22.1.1-43.1-9.2-58.6-24.9l-17.6-17.9c-.8-.8-2.1-.8-2.9 0l-75 79.9c-2.5 2.5-5.9 3.8-9.2 3.8s-6.7-1.3-9.2-3.8c-5.1-5.1-5.1-13.3 0-18.4l75.3-80.2c.7-.8.7-2 0-2.8L51.4 147.3c-1.3-1.3-3.4-.4-3.4 1.4V368c0 17.6 14.4 32 32 32h352c17.6 0 32-14.4 32-32V148.7c0-1.8-2.2-2.6-3.4-1.4z"/><path d="M256 295.1c14.8 0 28.7-5.8 39.1-16.4L452 119c-5.5-4.4-12.3-7-19.8-7H79.9c-7.5 0-14.4 2.6-19.8 7L217 278.7c10.3 10.5 24.2 16.4 39 16.4z"/></g></svg><view id="ios-map" viewBox="1045.333 512 512 512"/><svg viewBox="0 0 512 512" width="512" height="512" x="1045.333" y="512" xmlns="http://www.w3.org/2000/svg"><path d="M64 72.5v316.3c0 2.8 1.3 5.5 3.5 7l69.8 50.2c5.2 3.7 12.1-.3 12.1-7V122.7c0-2.8-1.3-5.5-3.5-7L76.1 65.4c-5.2-3.7-12.1.3-12.1 7.1z" fill="#666"/><path d="M168.7 123.3v316.3c0 6.7 6.9 10.8 12.1 7l62-36.7c2.2-1.6 3.5-4.2 3.5-7V86.6c0-6.7-6.9-10.8-12.1-7l-62 36.7c-2.2 1.5-3.5 4.1-3.5 7z" fill="#222"/><path d="M435.9 65.5l-69.8 50.7c-2.2 1.6-3.5 4.2-3.5 7v316.2c0 6.8 6.9 10.8 12.1 7l69.8-50.7c2.2-1.6 3.5-4.2 3.5-7V72.5c0-6.7-6.9-10.7-12.1-7z" fill="#666"/><path d="M265.7 85.6v316.2c0 2.8 1.3 5.5 3.5 7l62 37c5.2 3.8 12.1-.3 12.1-7V122.6c0-2.8-1.3-5.5-3.5-7l-62-37c-5.2-3.7-12.1.3-12.1 7z" fill="#222"/></svg><view id="ios-menu" viewBox="0 1045.333 512 512"/><svg viewBox="0 0 512 512" width="512" height="512" y="1045.333" xmlns="http://www.w3.org/2000/svg"><g fill="#222"><path d="M432 176H80c-8.8 0-16-7.2-16-16s7.2-16 16-16h352c8.8 0 16 7.2 16 16s-7.2 16-16 16zM432 272H80c-8.8 0-16-7.2-16-16s7.2-16 16-16h352c8.8 0 16 7.2 16 16s-7.2 16-16 16zM432 368H80c-8.8 0-16-7.2-16-16s7.2-16 16-16h352c8.8 0 16 7.2 16 16s-7.2 16-16 16z"/></g></svg><view id="ios-search" viewBox="512 1045.333 512 512"/><svg viewBox="0 0 512 512" width="512" height="512" x="512" y="1045.333" xmlns="http://www.w3.org/2000/svg"><path d="M443.5 420.2L336.7 312.4c20.9-26.2 33.5-59.4 33.5-95.5 0-84.5-68.5-153-153.1-153S64 132.5 64 217s68.5 153 153.1 153c36.6 0 70.1-12.8 96.5-34.2l106.1 107.1c3.2 3.4 7.6 5.1 11.9 5.1 4.1 0 8.2-1.5 11.3-4.5 6.6-6.3 6.8-16.7.6-23.3zm-226.4-83.1c-32.1 0-62.3-12.5-85-35.2-22.7-22.7-35.2-52.9-35.2-84.9 0-32.1 12.5-62.3 35.2-84.9 22.7-22.7 52.9-35.2 85-35.2s62.3 12.5 85 35.2c22.7 22.7 35.2 52.9 35.2 84.9 0 32.1-12.5 62.3-35.2 84.9-22.7 22.7-52.9 35.2-85 35.2z" fill="#fff"/></svg><view id="md-pin" viewBox="1024 1045.333 512 512"/><svg width="512" height="512" viewBox="0 0 512 512" x="1024" y="1045.333" xmlns="http://www.w3.org/2000/svg"><path d="M256 32c-88.004 0-160 70.557-160 156.801C96 306.4 256 480 256 480s160-173.6 160-291.199C416 102.557 344.004 32 256 32zm0 212.801c-31.996 0-57.144-24.645-57.144-56 0-31.357 25.147-56 57.144-56s57.144 24.643 57.144 56c0 31.355-25.148 56-57.144 56z" fill="#222"/></svg><view id="messenger" viewBox="0 0 533.333 533.333"/><svg version="1.0" width="533.333" height="533.333" viewBox="0 0 400 400" xmlns="http://www.w3.org/2000/svg"><path d="M186.5 53C128.4 57.2 76 97.1 59.6 149.7c-4.6 14.6-6 23.9-6 39.3 0 30.3 8.8 55.8 27.9 80.5 6.2 7.9 19 20.8 23.9 24l2.6 1.7v25.9c0 14.3.2 25.9.5 25.9s4.1-2 8.3-4.4c4.2-2.4 15.1-8.4 24.2-13.4l16.5-9 12 2.5c16.7 3.5 42.7 3.6 59 .4 19.2-3.8 32.5-8.7 48.5-17.9 43.9-25.2 69.4-68 69.4-116.2 0-15.4-1.4-24.7-6-39.3-14.3-46-56-82.5-106.8-93.8-7.7-1.7-30.8-4.1-35.6-3.7-.8 0-6 .4-11.5.8zm24.4 124.9c6.3 6.7 11.7 12.1 12.1 12.1.6 0 9.1-4.7 48.5-26.7 22.7-12.7 22.8-12.7 22.4-11.5-.4 1-11.8 13.4-30 32.7-4.1 4.4-14.2 15.2-22.5 24-8.2 8.8-17.6 18.8-20.8 22.3l-6 6.3-3.1-3.3c-1.6-1.8-9.1-9.8-16.5-17.8-7.5-8-14.5-15.6-15.7-16.9l-2.2-2.3-6.3 3.4c-3.5 2-8.8 4.9-11.8 6.6-3 1.6-11.8 6.5-19.5 10.7-27.8 15.5-33.7 18.6-34.2 18.1-.5-.4 23.8-26.9 48.7-53.1 14.4-15.2 21.8-23 26.1-27.8l4.4-4.9 7.5 8.1c4.1 4.4 12.6 13.4 18.9 20z" fill="#1DA1F2"/></svg></svg>