<?xml version="1.0" standalone="no"?>
<!DOCTYPE svg PUBLIC "-//W3C//DTD SVG 20010904//EN"
 "http://www.w3.org/TR/2001/REC-SVG-20010904/DTD/svg10.dtd">
<svg version="1.0" xmlns="http://www.w3.org/2000/svg"
 width="400.000000pt" height="400.000000pt" viewBox="0 0 400.000000 400.000000"
 preserveAspectRatio="xMidYMid meet">

<g transform="translate(0.000000,400.000000) scale(0.100000,-0.100000)"
fill="#1DA1F2" stroke="none">
<path d="M1865 3470 c-581 -42 -1105 -441 -1269 -967 -46 -146 -60 -239 -60
-393 0 -303 88 -558 279 -805 62 -79 190 -208 239 -240 l26 -17 0 -259 c0
-143 2 -259 5 -259 3 0 41 20 83 44 42 24 151 84 242 134 l165 90 120 -25
c167 -35 427 -36 590 -4 192 38 325 87 485 179 439 252 694 680 694 1162 0
154 -14 247 -60 393 -143 460 -560 825 -1068 938 -77 17 -308 41 -356 37 -8 0
-60 -4 -115 -8z m244 -1249 c63 -67 117 -121 121 -121 6 0 91 47 485 267 227
127 228 127 224 115 -4 -10 -118 -134 -300 -327 -41 -44 -142 -152 -225 -240
-82 -88 -176 -188 -208 -223 l-60 -63 -31 33 c-16 18 -91 98 -165 178 -75 80
-145 156 -157 169 l-22 23 -63 -34 c-35 -20 -88 -49 -118 -66 -30 -16 -118
-65 -195 -107 -278 -155 -337 -186 -342 -181 -5 4 238 269 487 531 144 152
218 230 261 278 l44 49 75 -81 c41 -44 126 -134 189 -200z"/>
</g>
</svg>
